# xmcd
#
# Track frame offsets:
#	150
#	11380
#	21140
#	29795
#	42287
#	47275
#	57157
#	67447
#	79390
#	84100
#	94042
#	105610
#	115427
#	124467
#	137305
#	143005
#	153230
#	162827
#	174722
#	185990
#	195707
#	207452
#	215630
#	225272
#	238077
#	249777
#	257267
#	267315
#	275470
#	289230
#	298227
#
# Disc length: 4271 seconds
#
# Revision: 1
# Processed by: cddbd v1.5.2PL0 Copyright (c) Steve Scherf et al.
# Submitted via: audiograbber 1.83.01
#
DISCID=c710ad1f
DTITLE=Mack Self - Easy To Love
DYEAR=1900
DGENRE=
TTITLE0=Goin' Crazy
TTITLE1=Everyday
TTITLE2=Vibrate
TTITLE3=Easy To Love
TTITLE4=Lovin' Memories
TTITLE5=Lovin' Memories
TTITLE6=Mad At You
TTITLE7=Willie Brown
TTITLE8=Little One
TTITLE9=Little One
TTITLE10=Goin' Crazy
TTITLE11=Everyday
TTITLE12=Vibrate
TTITLE13=Easy To love
TTITLE14=Lovin' Memories
TTITLE15=Lovin' Memories
TTITLE16=Mad At You
TTITLE17=Willie Brown 
TTITLE18=Goin' Crazy
TTITLE19=Everyday
TTITLE20=Easy To Love
TTITLE21=Got You On My Mind
TTITLE22=Lovin' Memories
TTITLE23=Jody McClain
TTITLE24=Folsom Prison Blues
TTITLE25=Yesterday's Gone
TTITLE26=That Mexican Limbo
TTITLE27=Breaking New Ground
TTITLE28=You Put These Tears In My Eyes
TTITLE29=Bridges
TTITLE30=Interview
EXTD=
EXTT0=
EXTT1=
EXTT2=
EXTT3=
EXTT4=
EXTT5=
EXTT6=
EXTT7=
EXTT8=
EXTT9=
EXTT10=
EXTT11=
EXTT12=
EXTT13=
EXTT14=
EXTT15=
EXTT16=
EXTT17=
EXTT18=
EXTT19=
EXTT20=
EXTT21=
EXTT22=
EXTT23=
EXTT24=
EXTT25=
EXTT26=
EXTT27=
EXTT28=
EXTT29=
EXTT30=
PLAYORDER=
